<svg width="40" height="40" viewBox="0 0 40 40" fill="none" xmlns="http://www.w3.org/2000/svg">
<path d="M1.6668 28.3332C1.6668 33.8498 6.15013 38.3332 11.6668 38.3332V35.8332C7.50013 35.8332 4.1668 32.4998 4.1668 28.3332H1.6668ZM38.3335 11.6665C38.3335 6.14984 33.8501 1.6665 28.3335 1.6665V4.1665C32.5001 4.1665 35.8335 7.49984 35.8335 11.6665H38.3335ZM26.6668 7.19984L34.3168 14.8665C39.6835 20.2332 39.6835 28.9498 34.3168 34.3165C28.9501 39.6832 20.2335 39.6832 14.8668 34.3165L3.08347 22.4998C2.2668 21.7165 2.2668 20.3998 3.08347 19.5832C3.27699 19.3892 3.50689 19.2352 3.75999 19.1302C4.0131 19.0252 4.28444 18.9711 4.55846 18.9711C4.8325 18.9711 5.10383 19.0252 5.35694 19.1302C5.61004 19.2352 5.83994 19.3892 6.03347 19.5832L13.4001 26.9498L14.5835 25.7665L3.68346 14.8665C2.86679 14.0498 2.86679 12.7332 3.68346 11.9165C4.50013 11.0998 5.83346 11.0998 6.6668 11.9165L16.3501 21.6665L17.5001 20.4498L6.05013 8.9665C5.23346 8.14984 5.23346 6.83317 6.05013 6.0165C6.86679 5.19984 8.18346 5.19984 9.00013 6.0165L20.4835 17.4998L21.6668 16.3332L12.5001 7.19984C11.6668 6.38317 11.6668 5.0665 12.5001 4.24984C13.3335 3.43317 14.6335 3.43317 15.4501 4.24984L28.1501 16.9498C27.1557 18.2326 26.663 19.8338 26.7642 21.4536C26.8655 23.0735 27.5537 24.6009 28.7001 25.7498L29.8835 24.5665C28.9471 23.629 28.4212 22.3582 28.4212 21.0332C28.4212 19.7082 28.9471 18.4373 29.8835 17.4998L30.4668 16.9165L23.6835 10.1332C22.8668 9.3165 22.8668 7.99984 23.6835 7.18317C24.5168 6.38317 25.8335 6.38317 26.6668 7.19984Z" fill="#FFAC33"/>
</svg>
