<svg width="24" height="24" viewBox="0 0 24 24" fill="none" xmlns="http://www.w3.org/2000/svg">
<path fill-rule="evenodd" clip-rule="evenodd" d="M12.067 1.74216e-07C14.6317 -1.15331e-05 16.6462 -2.32022e-05 18.2189 0.211423C19.8306 0.428113 21.1093 0.881221 22.1141 1.88594C23.1188 2.89067 23.5719 4.16941 23.7886 5.7811C24 7.35388 24 9.36831 24 11.933V12.067C24 14.6317 24 16.6462 23.7886 18.2189C23.5719 19.8306 23.1188 21.1093 22.1141 22.1141C21.1093 23.1188 19.8306 23.5719 18.2189 23.7886C16.6462 24 14.6317 24 12.067 24H11.933C9.36831 24 7.35388 24 5.7811 23.7886C4.16941 23.5719 2.89067 23.1188 1.88594 22.1141C0.881233 21.1093 0.428113 19.8306 0.211423 18.2189C-2.32022e-05 16.6462 -1.15331e-05 14.6317 1.74216e-07 12.067V11.933C-1.15331e-05 9.36833 -2.32022e-05 7.35388 0.211423 5.7811C0.428113 4.16941 0.881233 2.89067 1.88594 1.88594C2.89067 0.881221 4.16941 0.428113 5.7811 0.211423C7.35387 -2.32022e-05 9.36831 -1.15331e-05 11.933 1.74216e-07H12.067ZM17.2683 12C17.2683 14.9096 14.9096 17.2683 12 17.2683C9.0904 17.2683 6.73171 14.9096 6.73171 12C6.73171 9.0904 9.0904 6.73171 12 6.73171C14.9096 6.73171 17.2683 9.0904 17.2683 12ZM18.4534 6.73171C19.0971 6.73171 19.6189 6.20756 19.6189 5.56098C19.6189 4.9144 19.0971 4.39024 18.4534 4.39024H18.4429C17.7992 4.39024 17.2774 4.9144 17.2774 5.56098C17.2774 6.20755 17.7992 6.73171 18.4429 6.73171H18.4534Z" fill="#7E7E7E"/>
</svg>
