<svg width="24" height="24" viewBox="0 0 24 24" fill="none" xmlns="http://www.w3.org/2000/svg">
<path fill-rule="evenodd" clip-rule="evenodd" d="M11.933 1.74216e-07H12.067C14.6317 -1.15331e-05 16.6462 -2.32022e-05 18.2189 0.211423C19.8306 0.428113 21.1093 0.881221 22.1141 1.88594C23.1188 2.89067 23.5719 4.16941 23.7886 5.7811C24 7.35388 24 9.36836 24 11.933V12.067C24 14.6317 24 16.6462 23.7886 18.2189C23.5719 19.8306 23.1188 21.1093 22.1141 22.1141C21.1093 23.1188 19.8306 23.5719 18.2189 23.7886C16.6462 24 14.6317 24 12.067 24H11.933C9.36831 24 7.35388 24 5.7811 23.7886C4.16941 23.5719 2.89067 23.1188 1.88594 22.1141C0.881233 21.1093 0.428113 19.8306 0.211423 18.2189C-2.32022e-05 16.6462 -1.15331e-05 14.6317 1.74216e-07 12.067V11.933C-1.15331e-05 9.36832 -2.32022e-05 7.35388 0.211423 5.7811C0.428113 4.16941 0.881233 2.89067 1.88594 1.88594C2.89067 0.881221 4.16941 0.428113 5.7811 0.211423C7.35387 -2.32022e-05 9.36836 -1.15331e-05 11.933 1.74216e-07ZM7.31936 10.2439C7.31936 9.59732 6.79521 9.07317 6.14862 9.07317C5.50205 9.07317 4.97789 9.59732 4.97789 10.2439V17.8537C4.97789 18.5003 5.50205 19.0244 6.14862 19.0244C6.79521 19.0244 7.31936 18.5003 7.31936 17.8537V10.2439ZM10.8316 8.4878C11.3061 8.4878 11.7148 8.77018 11.8986 9.17609C12.6103 8.73951 13.4476 8.4878 14.3438 8.4878C16.9301 8.4878 19.0267 10.5845 19.0267 13.1707V17.8537C19.0267 18.5003 18.5025 19.0244 17.856 19.0244C17.2094 19.0244 16.6853 18.5003 16.6853 17.8537V13.1707C16.6853 11.8775 15.6369 10.8293 14.3438 10.8293C13.0506 10.8293 12.0023 11.8775 12.0023 13.1707V17.8537C12.0023 18.5003 11.4781 19.0244 10.8316 19.0244C10.185 19.0244 9.66088 18.5003 9.66088 17.8537V9.65854C9.66088 9.01195 10.185 8.4878 10.8316 8.4878ZM7.62119 6.14634C7.62119 6.95457 6.96599 7.60976 6.15778 7.60976H6.14725C5.33904 7.60976 4.68384 6.95457 4.68384 6.14634C4.68384 5.33811 5.33904 4.68293 6.14725 4.68293H6.15778C6.96599 4.68293 7.62119 5.33811 7.62119 6.14634Z" fill="#7E7E7E"/>
</svg>
