<svg width="24" height="24" viewBox="0 0 24 24" fill="none" xmlns="http://www.w3.org/2000/svg">
<path fill-rule="evenodd" clip-rule="evenodd" d="M18.2189 0.211423C16.6461 -2.32022e-05 14.6317 -1.15331e-05 12.0669 1.74216e-07H11.933C9.36833 -1.15331e-05 7.35388 -2.32022e-05 5.78111 0.211423C4.16941 0.428113 2.89067 0.881221 1.88596 1.88594C0.881233 2.89067 0.428113 4.16941 0.211434 5.7811C-2.33243e-05 7.35388 -1.15331e-05 9.36833 1.74232e-07 11.933V12.067C-1.15331e-05 14.6317 -2.33243e-05 16.6462 0.211434 18.2189C0.428113 19.8306 0.881233 21.1093 1.88596 22.1141C2.89067 23.1188 4.16941 23.5719 5.78111 23.7886C7.35388 24 9.36832 24 11.933 24H12.0669C14.6317 24 16.6461 24 18.2189 23.7886C19.8306 23.5719 21.1093 23.1188 22.114 22.1141C23.1188 21.1093 23.5718 19.8306 23.7885 18.2189C24 16.6462 24 14.6317 24 12.067V11.933C24 9.36831 24 7.35388 23.7885 5.7811C23.5718 4.16941 23.1188 2.89067 22.114 1.88594C21.1093 0.881221 19.8306 0.428113 18.2189 0.211423ZM6.14634 5.26829C5.81662 5.26829 5.51467 5.45302 5.36456 5.74661C5.21445 6.04019 5.24147 6.39312 5.43454 6.66043L9.90624 12.8521L5.52548 17.2328C5.18257 17.5757 5.18257 18.1316 5.52548 18.4745C5.86837 18.8174 6.42432 18.8174 6.76723 18.4745L10.9477 14.294L13.8898 18.3677C14.0548 18.5964 14.3197 18.7317 14.6016 18.7317H17.8536C18.1834 18.7317 18.4854 18.547 18.6354 18.2533C18.7855 17.9598 18.7585 17.6069 18.5654 17.3396L14.0938 11.1479L18.4746 6.76722C18.8174 6.42432 18.8174 5.86836 18.4746 5.52547C18.1317 5.18257 17.5757 5.18257 17.2328 5.52547L13.0523 9.70595L10.1102 5.63225C9.94511 5.40369 9.68029 5.26829 9.39838 5.26829H6.14634Z" fill="#7E7E7E"/>
</svg>
