<svg width="36" height="36" viewBox="0 0 36 36" fill="none" xmlns="http://www.w3.org/2000/svg">
<path fill-rule="evenodd" clip-rule="evenodd" d="M31.2374 27.612C30.6267 30.5012 28.0632 32.5598 25.1015 32.5833C24.618 32.61 24.5272 32.8853 24.5422 33.0197C24.5422 34.6198 23.245 35.9168 21.645 35.9168H11.3404C10.6191 35.917 9.95769 35.917 9.41967 35.8447C8.8272 35.765 8.20099 35.5777 7.68595 35.0625C7.17092 34.5475 6.9835 33.9213 6.90385 33.3288C6.83152 32.7908 6.83159 32.1295 6.83167 31.408V31.0897C6.83167 30.3247 6.83169 29.9422 7.0623 29.7947C7.29292 29.6472 7.65644 29.8152 8.38347 30.1512C8.62954 30.2648 8.87877 30.373 9.131 30.4753C9.77064 30.7352 10.4777 30.371 10.6906 29.7143C10.9035 29.0577 10.541 28.3577 9.90459 28.09C9.01632 27.7167 8.17275 27.2598 7.38404 26.7298C7.19682 26.604 7.01265 26.4737 6.83169 26.3397C3.24589 23.6838 0.916504 19.4468 0.916504 14.6668C0.916504 6.59631 7.54592 0.0834961 15.6869 0.0834961C23.4157 0.0834961 29.7794 5.95111 30.4067 13.4519C30.4155 13.7021 30.4564 14.2332 30.5495 14.3559L34.097 19.0313C34.3437 19.3553 34.603 19.6962 34.7769 20.0085C34.9769 20.3677 35.1819 20.8915 35.032 21.5172C34.8827 22.1407 34.4647 22.5153 34.1265 22.746C33.8307 22.9478 33.4457 23.1375 33.0775 23.3188L32.4407 23.6328C32.2245 23.7395 32.1165 23.7927 32.0457 23.8847C31.9747 23.9767 31.9509 24.0948 31.9029 24.331L31.2374 27.612ZM20.5139 13.947C19.9909 13.4963 19.9324 12.707 20.383 12.1841C20.8339 11.6612 21.623 11.6026 22.146 12.0534L23.6792 13.3748L23.7255 13.4147C24.0069 13.657 24.3057 13.9144 24.5242 14.1613C24.7712 14.4404 25.0799 14.8835 25.0799 15.5002C25.0799 16.117 24.7712 16.56 24.5242 16.839C24.3057 17.086 24.0067 17.3433 23.7255 17.5857L23.6792 17.6255L22.146 18.947C21.623 19.3977 20.8339 19.3392 20.383 18.8163C19.9324 18.2933 19.9909 17.504 20.5139 17.0533L22.047 15.7318C22.1489 15.644 22.2369 15.5682 22.3144 15.5002C22.2369 15.4322 22.1489 15.3563 22.047 15.2685L20.5139 13.947ZM10.6101 12.1841C11.0608 12.707 11.0023 13.4963 10.4793 13.947L8.94617 15.2685C8.8442 15.3563 8.7563 15.4322 8.67877 15.5002C8.7563 15.5682 8.8442 15.644 8.94617 15.7318L10.4793 17.0533C11.0023 17.504 11.0608 18.2933 10.6101 18.8163C10.1594 19.3392 9.37007 19.3977 8.84715 18.947L7.31397 17.6255L7.26767 17.5857C6.98639 17.3433 6.68752 17.086 6.46897 16.839C6.22189 16.56 5.91324 16.117 5.91324 15.5002C5.91324 14.8835 6.22189 14.4404 6.46897 14.1613C6.6875 13.9144 6.98634 13.657 7.2676 13.4148L7.31397 13.3748L8.84715 12.0534C9.37007 11.6026 10.1594 11.6612 10.6101 12.1841ZM18.3242 11.7981C18.5805 11.1571 18.2689 10.4296 17.6279 10.1732C16.9869 9.91685 16.2594 10.2286 16.003 10.8696L12.6697 19.203C12.4133 19.8438 12.725 20.5713 13.366 20.8278C14.007 21.0842 14.7344 20.7723 14.9909 20.1313L18.3242 11.7981Z" fill="#FA2B66"/>
</svg>
