<svg width="35" height="36" viewBox="0 0 35 36" fill="none" xmlns="http://www.w3.org/2000/svg">
<path fill-rule="evenodd" clip-rule="evenodd" d="M14.9925 2.99984C14.9925 1.84924 15.9253 0.916504 17.0758 0.916504H17.0908C18.2413 0.916504 19.1742 1.84924 19.1742 2.99984C19.1742 4.15044 18.2413 5.08317 17.0908 5.08317H17.0758C15.9253 5.08317 14.9925 4.15044 14.9925 2.99984ZM25.598 7.39315C25.598 6.24255 26.5307 5.30982 27.6813 5.30982H27.6963C28.8468 5.30982 29.7797 6.24255 29.7797 7.39315C29.7797 8.54374 28.8468 9.47649 27.6963 9.47649H27.6813C26.5307 9.47649 25.598 8.54374 25.598 7.39315ZM4.39015 7.39395C4.39015 6.24337 5.32288 5.31062 6.47348 5.31062H6.48845C7.63903 5.31062 8.57178 6.24337 8.57178 7.39395C8.57178 8.54455 7.63903 9.47729 6.48845 9.47729H6.47348C5.32288 9.47729 4.39015 8.54455 4.39015 7.39395ZM0 18.0008C0 16.8502 0.932733 15.9175 2.08333 15.9175H2.0983C3.24888 15.9175 4.18163 16.8502 4.18163 18.0008C4.18163 19.1513 3.24888 20.0842 2.0983 20.0842H2.08333C0.932733 20.0842 0 19.1513 0 18.0008ZM29.985 18.0008C29.985 16.8502 30.9178 15.9175 32.0683 15.9175H32.0833C33.234 15.9175 34.1667 16.8502 34.1667 18.0008C34.1667 19.1513 33.234 20.0842 32.0833 20.0842H32.0683C30.9178 20.0842 29.985 19.1513 29.985 18.0008ZM4.39015 28.6065C4.39015 27.456 5.32288 26.5232 6.47348 26.5232H6.48845C7.63903 26.5232 8.57178 27.456 8.57178 28.6065C8.57178 29.7572 7.63903 30.6898 6.48845 30.6898H6.47348C5.32288 30.6898 4.39015 29.7572 4.39015 28.6065ZM25.597 28.6073C25.597 27.4567 26.5298 26.524 27.6803 26.524H27.6953C28.8458 26.524 29.7787 27.4567 29.7787 28.6073C29.7787 29.758 28.8458 30.6907 27.6953 30.6907H27.6803C26.5298 30.6907 25.597 29.758 25.597 28.6073ZM14.9935 32.9998C14.9935 31.8492 15.9262 30.9165 17.0768 30.9165H17.0918C18.2423 30.9165 19.1752 31.8492 19.1752 32.9998C19.1752 34.1505 18.2423 35.0832 17.0918 35.0832H17.0768C15.9262 35.0832 14.9935 34.1505 14.9935 32.9998Z" fill="#FA2B66"/>
</svg>
