<svg width="51" height="52" viewBox="0 0 51 52" fill="none" xmlns="http://www.w3.org/2000/svg">
<path d="M23.1105 9.40482C23.4097 9.79403 23.4533 10.3223 23.222 10.7553C22.2488 12.5781 21.6965 14.66 21.6965 16.8747C21.6965 24.061 27.5222 29.8867 34.7085 29.8867C36.9232 29.8867 39.0052 29.3345 40.8278 28.3612C41.2608 28.13 41.7892 28.1737 42.1783 28.4727C42.5677 28.7718 42.7457 29.2712 42.6337 29.749C40.8427 37.3915 33.9848 43.0832 25.7948 43.0832C16.2431 43.0832 8.5 35.34 8.5 25.7885C8.5 17.5983 14.1917 10.7406 21.8342 8.94953C22.3122 8.83752 22.8113 9.01562 23.1105 9.40482Z" fill="#E9E9E9"/>
</svg>
